# xmcd
#
# Track frame offsets: 
#        150
#        14642
#        35970
#        53785
#        70123
#        82998
#        97884
#        113882
#        130879
#        152540
#        167190
#        184465
#        206035
#        222452
#        235450
#        250955
#        265418
#        284773
#        299385
#
# Disc length: 4227 seconds
#
# Revision: 0
# Processed by: cddbd v1.5PL3 Copyright (c) Steve Scherf et al.
# Submitted via: ExactAudioCopy v0.95a3
#
DISCID=2e108113
DTITLE=Various Artist - Black Tracks Vol. 2 [CD1]
DYEAR=1900
DGENRE=R&B
TTITLE0=Sat-R-Day - The Weekend Is For You
TTITLE1=Lutrine Cato - Friends
TTITLE2=Kaspar - Everything Is Lyrical
TTITLE3=Bad Meets Evil Feat. Eminem and Royce 5'9'' - Scary Movies
TTITLE4=Tupac Shakur - Static
TTITLE5=Bay Area Playas - Holla Skrill Ya´ll
TTITLE6=Nato - Metropolis - Thugg Odyssey
TTITLE7=Jonestown - Take My Time
TTITLE8=Joe - I Wanna Know
TTITLE9=Marika - 360
TTITLE10=Baby Doll Feat. Notorious B.I.G. - 2 Many Men
TTITLE11=Tony Tome Feat. SKI, Rugged I and Twisted - Say What!!!
TTITLE12=Lutricia McNeal - Fly Away (R 'n' B Remix)
TTITLE13=Underdog Project - Tonight
TTITLE14=Jonestown - How Could You Say
TTITLE15=Makoma - Baby Come
TTITLE16=Franklyn Avenue Allstars - 20B
TTITLE17=N-Dre - Tell Me
TTITLE18=Nate Dogg - Hardest Man In Town
EXTD=
EXTT0=
EXTT1=
EXTT2=
EXTT3=
EXTT4=
EXTT5=
EXTT6=
EXTT7=
EXTT8=
EXTT9=
EXTT10=
EXTT11=
EXTT12=
EXTT13=
EXTT14=
EXTT15=
EXTT16=
EXTT17=
EXTT18=
PLAYORDER=
